<svg width="20" height="21" viewBox="0 0 20 21" fill="none" xmlns="http://www.w3.org/2000/svg">
<path d="M12.4651 8.0593L10.0003 10.5001L7.53558 8.05931C5.10017 5.64758 3.88246 4.44172 4.22337 3.40132C4.25267 3.31189 4.28906 3.22489 4.3322 3.14113C4.83404 2.16675 6.55614 2.16675 10.0003 2.16675C13.4445 2.16675 15.1666 2.16675 15.6684 3.14113C15.7116 3.22489 15.748 3.31189 15.7773 3.40132C16.1182 4.44172 14.9005 5.64758 12.4651 8.0593Z" stroke="black"/>
<path opacity="0.5" d="M7.53558 12.9408L10.0003 10.5L12.4651 12.9408C14.9005 15.3525 16.1182 16.5584 15.7773 17.5988C15.748 17.6882 15.7116 17.7752 15.6684 17.8589C15.1666 18.8333 13.4445 18.8333 10.0003 18.8333C6.55614 18.8333 4.83404 18.8333 4.3322 17.8589C4.28906 17.7752 4.25267 17.6882 4.22337 17.5988C3.88246 16.5584 5.10017 15.3525 7.53557 12.9408L7.53558 12.9408Z" stroke="black"/>
</svg>
