<svg width="25" height="24" viewBox="0 0 25 24" fill="none" xmlns="http://www.w3.org/2000/svg">
<g clip-path="url(#clip0_122_2139)">
<path d="M24.3113 10.9657C24.2945 10.85 24.2698 10.7355 24.2371 10.623L24.0059 10.9058C23.9658 10.3889 23.8714 9.87732 23.7241 9.37901C23.5395 8.75456 23.295 8.14828 22.9935 7.56816C22.8096 7.17992 22.586 6.81055 22.326 6.4656C22.1913 6.26186 22.0751 6.11086 22.0528 6.0797C21.6053 5.37381 21.1047 4.94477 20.5089 4.13702C20.1314 3.51669 19.8737 2.8348 19.7486 2.12484C19.5817 2.55077 19.4563 2.99093 19.3741 3.43953C18.777 2.85349 18.2455 2.42565 17.9302 2.14521C16.364 0.727455 16.5544 0 16.5544 0C16.5544 0 13.6321 3.15789 14.8955 6.44402C15.3333 7.56268 16.0894 8.538 17.0761 9.25677C18.2986 10.2311 19.6126 10.9969 20.3012 12.9731C19.7485 11.9349 18.906 11.0683 17.8697 10.472C18.1824 11.1934 18.3394 11.9485 18.3283 12.7299C18.3278 13.4335 18.1843 14.1302 17.9059 14.7801C17.6275 15.43 17.2197 16.0203 16.7058 16.5172C16.1919 17.0142 15.5821 17.4081 14.9111 17.6764C14.2401 17.9447 13.5211 18.0822 12.7953 18.0809C12.3856 18.0832 11.977 18.0394 11.5777 17.9503C11.1015 17.8628 10.6408 17.7098 10.2092 17.4961C9.56039 17.1225 8.99881 16.6221 8.56022 16.0268V16.0184C8.58999 16.0311 8.62107 16.0408 8.65294 16.0471C8.8841 16.1274 9.11278 16.1886 9.35383 16.2305C10.2896 16.4207 11.2639 16.31 12.129 15.9153C13.0042 15.4407 13.537 15.0944 13.9634 15.2274C14.3936 15.358 14.715 14.9637 14.4245 14.5503C14.1689 14.2294 13.8276 13.9825 13.4375 13.8363C13.0475 13.6901 12.6236 13.6502 12.2118 13.721C11.3329 13.842 10.5306 14.4388 9.39339 13.8612C9.31057 13.8228 9.24876 13.7821 9.17583 13.7401C9.10166 13.6898 9.42553 13.8013 9.34147 13.7509C9.09034 13.6316 8.84972 13.4925 8.62203 13.3351C8.61091 13.3243 8.80127 13.3866 8.77779 13.3746C8.48027 13.1791 8.22498 12.9291 8.02621 12.6388C7.92778 12.4606 7.87221 12.2632 7.86365 12.0612C7.85508 11.8593 7.89375 11.6581 7.97676 11.4727C8.08346 11.2869 8.24782 11.1385 8.4465 11.0484L8.68384 11.1683C8.68384 11.1683 8.61091 11.0484 8.57877 10.9873C8.59113 10.9777 8.60225 10.9873 8.62203 10.9777C8.74812 11.0281 9.02873 11.1683 9.18448 11.2606C9.28886 11.3136 9.3787 11.39 9.44655 11.4835C9.44655 11.4835 9.4997 11.4631 9.45767 11.354C9.40685 11.2216 9.31033 11.1102 9.18448 11.0389H9.20673C9.32169 11.1 9.42677 11.1611 9.52937 11.239C9.62331 11.0161 9.67647 10.798 9.66782 10.5643C9.67519 10.4371 9.65714 10.3097 9.61466 10.1892C9.5714 10.1089 9.63568 10.0777 9.70737 10.1592C9.69574 10.0958 9.67449 10.0344 9.64433 9.97703C9.64433 9.97703 9.68636 9.91591 9.70737 9.90273C9.76053 9.85479 9.81121 9.80445 9.87549 9.77449C10.2377 9.55278 10.6159 9.35863 11.0127 9.20643C11.2289 9.12428 11.4413 9.03312 11.6494 8.93319C11.7322 8.88285 11.8064 8.83252 11.8793 8.7702C12.1512 8.54849 12.3292 8.24528 12.3898 7.90972C12.4022 7.86178 12.4022 7.82103 12.4022 7.78149V7.69879C12.3602 7.52622 12.0573 7.40517 10.4824 7.25297C10.2104 7.21268 9.95735 7.09361 9.75638 6.9114C9.55542 6.72918 9.41596 6.49232 9.35631 6.2319V6.24029C9.33301 6.29782 9.31198 6.35618 9.29326 6.41526C9.31304 6.35174 9.33405 6.30261 9.35631 6.24029V6.2319C9.65773 5.47034 10.1977 4.81947 10.9003 4.37072C10.9386 4.34076 10.7445 4.37911 10.7853 4.35035C10.9114 4.28922 11.0461 4.22691 11.192 4.17657C11.2649 4.155 10.8891 4.01598 10.5554 4.04474C10.3545 4.05853 10.1572 4.10302 9.97067 4.17657C10.0535 4.11785 10.2822 4.03515 10.2303 4.03515C9.80643 4.10761 9.39997 4.25508 9.0312 4.47019C9.0312 4.43064 9.04356 4.39828 9.05345 4.37072C8.76042 4.49018 8.50472 4.68189 8.31176 4.9268V4.79257C8.18169 4.8954 8.05979 5.00757 7.94709 5.12813H7.9372C7.06933 4.8024 6.12305 4.72584 5.21149 4.90762L5.2016 4.89683H5.21149C5.02158 4.74988 4.85967 4.57182 4.7331 4.37072L4.72074 4.37911L4.7022 4.35993C4.63668 4.27844 4.58724 4.17777 4.52049 4.06512C4.47104 3.99321 4.42901 3.90213 4.37709 3.81344C4.37709 3.81344 4.37709 3.80386 4.3672 3.80386C4.35484 3.80386 4.33506 3.89614 4.32641 3.86258C4.16567 3.46069 4.0904 3.03143 4.10514 2.60062H4.09525C3.83349 2.76829 3.63823 3.01717 3.54145 3.3065C3.49077 3.40957 3.45863 3.4599 3.42773 3.52102V3.48747L3.4574 3.33766C3.44998 3.34845 3.44998 3.35803 3.43638 3.36762C3.36251 3.45132 3.30018 3.54398 3.25096 3.64326C3.1968 3.73512 3.15406 3.83287 3.12364 3.93449V3.88415C3.12364 3.8434 3.13476 3.78228 3.12364 3.80386L3.11251 3.83142C2.77533 4.55243 2.56396 5.32272 2.48702 6.11086C2.46724 6.25227 2.46724 6.3841 2.46724 6.51473V6.5363C2.22868 6.78862 2.01589 7.06274 1.83186 7.35484C1.22551 8.34689 0.774742 9.42086 0.494344 10.5415C0.693364 10.1172 0.931941 9.70139 1.21502 9.31789C0.675374 10.6352 0.398926 12.0399 0.400396 13.4573C0.494344 13.0426 0.609306 12.6376 0.744046 12.2325C0.661622 13.9073 0.99526 15.5768 1.7169 17.1006C2.68506 19.2091 4.29808 20.9783 6.33763 22.1688C7.16135 22.7154 8.0652 23.1388 9.01884 23.4247C9.14492 23.4643 9.28214 23.5134 9.40575 23.5554C9.36372 23.5338 9.33282 23.5134 9.29203 23.505C10.4226 23.8317 11.5958 23.9985 12.7755 24C16.9623 24 18.3394 22.4516 18.4742 22.3006C18.6719 22.1196 18.8487 21.9039 18.9637 21.6523C19.0477 21.6235 19.1207 21.5923 19.2047 21.5516L19.2554 21.5324C19.3184 21.5012 19.3481 21.4917 19.3481 21.4917C19.9822 21.2036 20.5786 20.8431 21.1245 20.4179C21.9353 19.8476 22.5151 19.0205 22.7636 18.0797C22.9181 17.7369 22.9181 17.3606 22.7933 17.0083C22.8551 16.9076 22.9095 16.8153 22.9181 16.795C23.818 15.3968 24.3287 13.7964 24.4003 12.1498V12.0108C24.4027 11.6606 24.3729 11.3108 24.3113 10.9657Z" fill="#B11E1E"/>
</g>
<defs>
<clipPath id="clip0_122_2139">
<rect width="24" height="24" fill="white" transform="translate(0.400391)"/>
</clipPath>
</defs>
</svg>
